Coordinates
version=1
nRows=11
nColumns=36
inDegrees=yes

Units are S.I. units (second, meters, Newtons, ...)
If the header above contains a line with 'inDegrees', this indicates whether rotational values are in degrees (yes) or radians (no).

endheader
time	pelvis_tilt	pelvis_list	pelvis_rotation	pelvis_tx	pelvis_ty	pelvis_tz	hip_flexion_r	hip_adduction_r	hip_rotation_r	knee_angle_r	knee_angle_r_beta	ankle_angle_r	subtalar_angle_r	mtp_angle_r	hip_flexion_l	hip_adduction_l	hip_rotation_l	knee_angle_l	knee_angle_l_beta	ankle_angle_l	subtalar_angle_l	mtp_angle_l	lumbar_extension	lumbar_bending	lumbar_rotation	arm_flex_r	arm_add_r	arm_rot_r	elbow_flex_r	pro_sup_r	arm_flex_l	arm_add_l	arm_rot_l	elbow_flex_l	pro_sup_l
      5.85000000	      0.05667265	     -3.01811088	    -11.89510933	      0.29596188	      0.96104952	     -0.10072440	     52.05115196	      4.83208963	      6.23944557	     20.45160557	      0.35694785	     -5.95896638	     -4.53089245	     -7.49999987	     14.38088953	     -0.22341823	     -7.41827316	     34.80513802	      0.60746426	     19.39776603	      0.80571288	     -7.49999987	     -5.04290400	     -4.78287854	      8.07318954	     39.88654968	      6.05267655	     67.07965866	    118.48125118	     86.10345330	     39.04280473	      0.61108040	     69.45915426	    114.72701170	     74.10409064
      5.86666670	     -0.34746944	     -3.74577227	    -12.30109924	      0.29709265	      0.96083827	     -0.10037492	     52.85341744	      5.75286013	      5.68202047	     21.29082603	      0.37159501	     -5.68238261	     -5.22962088	     -7.49999987	     13.90676815	     -1.08113620	     -7.77371756	     33.73155501	      0.58872670	     19.07174614	      1.07048553	     -7.49999987	     -4.30478111	     -3.71118950	      8.08830790	     40.01594384	      6.40711744	     66.70667749	    118.49943593	     91.05318926	     38.51154118	      0.72951073	     69.29881411	    114.96073729	     76.58392996
      5.88333330	     -0.56175844	     -4.15472109	    -12.51094099	      0.28991767	      0.95926351	     -0.10769561	     53.85334682	      6.16661736	      5.21200099	     22.58619393	      0.39420345	     -5.63582462	     -5.74423571	     -7.49999987	     13.67435676	     -1.45566492	     -7.91980069	     32.98603568	      0.57571493	     18.69045889	      1.21974381	     -7.49999987	     -4.12040077	     -2.94293918	      7.90274254	     40.75361975	      6.17502011	     66.85406682	    118.72605433	     91.06596545	     38.69794913	      1.34330886	     69.19608887	    115.03139645	     76.62753481
      5.90000000	     -0.67737800	     -4.49465936	    -12.61924968	      0.29176514	      0.96240226	     -0.10742825	     54.51968474	      6.35419267	      4.68111118	     23.45835514	      0.40942553	     -5.75292323	     -6.07281728	     -7.49999987	     13.30442104	     -1.68587376	     -7.95688708	     32.18403988	      0.56171746	     18.37264389	      1.30794673	     -7.49999987	     -4.04070853	     -2.19374887	      7.68188644	     40.82622135	      6.16938733	     67.11920649	    119.18631948	     91.07307558	     38.55458533	      1.40042195	     69.21904436	    114.90965296	     76.64200339
      5.91666670	     -0.97416650	     -4.80411345	    -12.91251626	      0.29717717	      0.96251670	     -0.10199281	     55.20127589	      6.71266200	      4.28025285	     24.21445932	      0.42262204	     -5.68375536	     -6.66224407	     -7.49999987	     12.97892481	     -1.95011148	     -7.99420851	     31.22121758	      0.54491304	     17.90361466	      1.01456841	     -7.49999987	     -3.55242952	     -1.55330966	      7.72952112	     40.39906323	      6.04956651	     68.22679204	    120.31572033	     91.06598204	     37.34325027	      1.34752493	     68.80664469	    114.97250929	     76.68210927
      5.93333330	     -1.45638049	     -5.06714951	    -13.19292997	      0.29752482	      0.95873632	     -0.10134155	     56.25440686	      7.08052948	      3.90278027	     25.22674910	      0.44028983	     -5.57511004	     -7.32089062	     -7.49999987	     12.95277556	     -2.28880226	     -8.02701367	     30.49387138	      0.53221846	     17.68120172	      0.86044030	     -7.49999987	     -2.75909842	     -0.89294613	      7.67771159	     39.98335233	      5.94863763	     68.81127983	    120.41316410	     89.51327360	     36.37568294	      1.31362964	     68.83838541	    115.34622806	     75.97759693
      5.95000000	     -1.53486565	     -5.43159620	    -13.33226095	      0.28943556	      0.95841776	     -0.10063978	     57.00220254	      7.38457275	      3.35936752	     26.28623910	      0.45878142	     -5.70003832	     -7.70399752	     -7.49999987	     12.78351984	     -2.74787305	     -8.13582845	     30.04686838	      0.52441678	     17.44909320	      0.85915794	     -7.49999987	     -2.81475611	     -0.40793221	      7.62747534	     40.21237508	      5.78752659	     68.74036889	    120.42150122	     89.52262711	     36.33090057	      1.30206514	     68.99558759	    115.36999767	     76.00807890
      5.96666670	     -1.78151567	     -5.38964833	    -13.31015810	      0.29062042	      0.95798934	     -0.10020874	     58.11982877	      7.30597031	      2.96412267	     27.62572212	      0.48215981	     -5.34855402	     -8.20126817	     -7.49999987	     12.96462777	     -2.78079382	     -8.03399829	     29.74405187	      0.51913164	     17.10912443	      0.44007670	     -7.49999987	     -2.54492464	     -0.42640220	      7.41155710	     40.09733183	      5.73063654	     68.79293175	    120.09989376	     88.57779720	     36.17958700	      0.86294611	     69.40341390	    115.48768541	     75.46369965
      5.98333330	     -2.01286268	     -5.54264737	    -13.29663254	      0.28984244	      0.95722956	     -0.10117143	     58.84819409	      7.30363880	      2.48491373	     28.52015788	      0.49777066	     -4.96082530	     -8.32821831	     -7.49999987	     13.05961924	     -2.98845191	     -7.88991898	     29.45752521	      0.51413080	     16.92089090	      0.08537710	     -7.49999987	     -2.36854107	     -0.19554767	      7.16000079	     40.02441470	      5.53470286	     68.53646740	    119.45244474	     87.65831631	     36.07774587	      0.70477833	     69.48421343	    115.52163247	     74.79023515
      6.00000000	     -2.21567981	     -5.73747720	    -13.33304359	      0.29123372	      0.95693953	     -0.10069868	     59.41710068	      7.34665719	      2.07497462	     29.50727864	      0.51499917	     -4.29219926	     -8.27112428	     -7.49999987	     13.04448951	     -3.22860734	     -7.80018403	     29.11954755	      0.50823198	     16.68035617	     -0.38757162	     -7.49999987	     -2.04644767	      0.13456518	      6.69646726	     39.52499562	      5.57703000	     68.55157673	    119.06535520	     86.33821698	     35.74465531	      0.51526967	     68.98414690	    115.16758468	     73.95329317
      6.01666670	     -2.16037337	     -5.87266824	    -13.41531175	      0.28998435	      0.94957310	     -0.10150133	     59.93638023	      7.36926347	      1.93177021	     30.61312375	      0.53429980	     -4.10283946	     -8.53434255	     -7.49999987	     12.95938453	     -3.36675366	     -7.81585560	     28.97094701	      0.50563841	     16.47015263	     -0.80596385	     -7.49999987	     -2.03565679	      0.43775478	      6.01721819	     39.88950172	      5.98217994	     68.28390317	    119.10588094	     86.48476860	     35.79150333	      0.55611483	     67.78710094	    115.44072077	     73.95559444
